<svg xmlns="http://www.w3.org/2000/svg" viewBox="0 0 512 512">
  <circle cx="256" cy="256" r="256" fill="#0a1628"/>
  <g transform="translate(256,220)">
    <!-- Eagle head silhouette -->
    <path d="M-10,-90 C-30,-80 -60,-60 -70,-40 C-80,-20 -85,10 -80,30 C-75,50 -60,70 -40,80 L-20,90 L20,90 L40,80 C60,70 75,50 80,30 C85,10 80,-20 70,-40 C60,-60 30,-80 10,-90 C0,-95 0,-95 0,-95 C0,-95 0,-95 -10,-90Z" fill="#d4a843"/>
    <!-- Beak -->
    <path d="M-8,-40 L0,-55 L8,-40 L0,-30Z" fill="#e8c34a"/>
    <!-- Eyes -->
    <circle cx="-22" cy="-50" r="9" fill="#0a1628"/>
    <circle cx="22" cy="-50" r="9" fill="#0a1628"/>
    <circle cx="-22" cy="-50" r="4" fill="#d4a843"/>
    <circle cx="22" cy="-50" r="4" fill="#d4a843"/>
  </g>
</svg>
